<?xml version="1.0" encoding="UTF-8" standalone="no"?>
<!-- Generator: Adobe Illustrator 24.3.0, SVG Export Plug-In . SVG Version: 6.00 Build 0)  -->

<svg
   version="1.1"
   id="Layer_1"
   x="0px"
   y="0px"
   viewBox="0 0 400 400"
   enable-background="new 0 0 400 400"
   xml:space="preserve"
   sodipodi:docname="constellation.svg"
   inkscape:version="1.1.2 (b8e25be8, 2022-02-05)"
   xmlns:inkscape="http://www.inkscape.org/namespaces/inkscape"
   xmlns:sodipodi="http://sodipodi.sourceforge.net/DTD/sodipodi-0.dtd"
   xmlns="http://www.w3.org/2000/svg"
   xmlns:svg="http://www.w3.org/2000/svg"><defs
   id="defs1009" /><sodipodi:namedview
   id="namedview1007"
   pagecolor="#ffffff"
   bordercolor="#666666"
   borderopacity="1.0"
   inkscape:pageshadow="2"
   inkscape:pageopacity="0.0"
   inkscape:pagecheckerboard="0"
   showgrid="false"
   inkscape:zoom="1.5625"
   inkscape:cx="200"
   inkscape:cy="200"
   inkscape:window-width="1312"
   inkscape:window-height="847"
   inkscape:window-x="0"
   inkscape:window-y="25"
   inkscape:window-maximized="0"
   inkscape:current-layer="Layer_1" />
<g
   id="g1004">
	<g
   id="g928">
		<g
   id="g826">
			<circle
   fill="#FF7D5F"
   cx="90.724"
   cy="167.632"
   r="11.722"
   id="circle824" />
		</g>
		<g
   id="g830">
			<circle
   fill="#FF7D5F"
   cx="151.461"
   cy="217.166"
   r="11.722"
   id="circle828" />
		</g>
		<g
   id="g834">
			
				<ellipse
   transform="matrix(0.7071 -0.7071 0.7071 0.7071 -34.7007 191.7457)"
   fill="#FF7D5F"
   cx="214.107"
   cy="137.76"
   rx="11.722"
   ry="11.722"
   id="ellipse832" />
		</g>
		<g
   id="g838">
			
				<ellipse
   transform="matrix(0.9239 -0.3827 0.3827 0.9239 -59.3001 112.7676)"
   fill="#FF7D5F"
   cx="253.81"
   cy="205.444"
   rx="11.722"
   ry="11.722"
   id="ellipse836" />
		</g>
		<g
   id="g842">
			
				<ellipse
   transform="matrix(0.2244 -0.9745 0.9745 0.2244 -29.6081 515.8837)"
   fill="#FF7D5F"
   cx="309.278"
   cy="276.542"
   rx="11.722"
   ry="11.722"
   id="ellipse840" />
		</g>
		<g
   id="g846">
			<path
   fill="#FFDA88"
   d="M145.996,206.855l-44.074-35.944c-0.894,3.053-2.976,5.567-5.735,7.032l44.075,35.945     C141.156,210.834,143.237,208.322,145.996,206.855z"
   id="path844" />
		</g>
		<g
   id="g850">
			<path
   fill="#FFDA88"
   d="M243.644,211.175c-0.962-1.7-1.555-3.638-1.555-5.731c0-1.149,0.217-2.236,0.524-3.285l-80.985,9.276     c0.961,1.701,1.555,3.638,1.555,5.731c0,1.149-0.217,2.236-0.524,3.285L243.644,211.175z"
   id="path848" />
		</g>
		<g
   id="g854">
			<path
   fill="#FFDA88"
   d="M306.241,265.269l-42.239-54.14c-1.523,2.722-4.074,4.757-7.152,5.588l42.236,54.139     C300.61,268.135,303.163,266.098,306.241,265.269z"
   id="path852" />
		</g>
		<g
   id="g858">
			<path
   fill="#FFDA88"
   d="M204.709,144.704c-1.442-1.947-2.324-4.334-2.324-6.944c0-0.643,0.09-1.261,0.189-1.877l-102.452,24.804     c1.442,1.948,2.324,4.335,2.324,6.945c0,0.643-0.09,1.261-0.189,1.876L204.709,144.704z"
   id="path856" />
		</g>
		<g
   id="g862">
			<path
   fill="#FFDA88"
   d="M223.467,144.75c-1.846,2.468-4.629,4.158-7.834,4.579l28.817,49.127     c1.846-2.468,4.629-4.158,7.834-4.579L223.467,144.75z"
   id="path860" />
		</g>
		<g
   id="g866">
			<path
   fill="#FFDA88"
   d="M265.726,273.696h-4.216v-4.216c0-2.573-2.087-4.66-4.66-4.66c-2.573,0-4.66,2.087-4.66,4.66v4.216     h-4.216c-2.573,0-4.66,2.087-4.66,4.66c0,2.573,2.087,4.66,4.66,4.66h4.216v4.215c0,2.573,2.087,4.66,4.66,4.66     c2.573,0,4.66-2.087,4.66-4.66v-4.215h4.216c2.573,0,4.66-2.087,4.66-4.66C270.386,275.783,268.299,273.696,265.726,273.696z"
   id="path864" />
		</g>
		<g
   id="g870">
			<path
   fill="#FFDA88"
   d="M233.46,297.139h-4.216v-4.216c0-2.573-2.087-4.66-4.66-4.66c-2.573,0-4.66,2.087-4.66,4.66v4.216h-4.216     c-2.573,0-4.66,2.087-4.66,4.66c0,2.573,2.087,4.66,4.66,4.66h4.216v4.215c0,2.573,2.087,4.66,4.66,4.66     c2.573,0,4.66-2.087,4.66-4.66v-4.215h4.216c2.573,0,4.66-2.087,4.66-4.66C238.12,299.226,236.032,297.139,233.46,297.139z"
   id="path868" />
		</g>
		<g
   id="g874">
			<path
   fill="#FFDA88"
   d="M227.099,267.167c0,3.905-3.164,7.071-7.069,7.071c-3.905,0-7.072-3.165-7.072-7.071     c0-3.905,3.167-7.071,7.072-7.071C223.935,260.097,227.099,263.262,227.099,267.167z"
   id="path872" />
		</g>
		<g
   id="g878">
			<path
   fill="#FFE2A9"
   d="M218.606,267.167c0-2.899,1.75-5.385,4.248-6.475c-0.866-0.38-1.818-0.595-2.824-0.595     c-3.905,0-7.072,3.165-7.072,7.071c0,3.905,3.167,7.071,7.072,7.071c1.006,0,1.959-0.216,2.824-0.595     C220.357,272.553,218.606,270.067,218.606,267.167z"
   id="path876" />
		</g>
		<g
   id="g882">
			<path
   fill="#FFDA88"
   d="M125.768,261.062h-4.216v-4.215c0-2.573-2.087-4.66-4.66-4.66c-2.573,0-4.66,2.087-4.66,4.66v4.215     h-4.216c-2.573,0-4.66,2.087-4.66,4.66c0,2.573,2.087,4.66,4.66,4.66h4.216v4.215c0,2.573,2.087,4.66,4.66,4.66     c2.573,0,4.66-2.087,4.66-4.66v-4.215h4.216c2.573,0,4.66-2.087,4.66-4.66C130.428,263.15,128.341,261.062,125.768,261.062z"
   id="path880" />
		</g>
		<g
   id="g886">
			<path
   fill="#FFDA88"
   d="M315.115,93.54H310.9v-4.215c0-2.573-2.089-4.66-4.659-4.66c-2.576,0-4.661,2.087-4.661,4.66v4.215     h-4.216c-2.573,0-4.659,2.087-4.659,4.66c0,2.573,2.086,4.66,4.659,4.66h4.216v4.215c0,2.573,2.086,4.66,4.661,4.66     c2.57,0,4.659-2.087,4.659-4.66v-4.215h4.215c2.573,0,4.661-2.087,4.661-4.66C319.776,95.628,317.688,93.54,315.115,93.54z"
   id="path884" />
		</g>
		<g
   id="g890">
			<path
   fill="#FFDA88"
   d="M282.847,110.682h-4.215v-4.215c0-2.573-2.087-4.66-4.66-4.66c-2.573,0-4.66,2.087-4.66,4.66v4.215     h-4.215c-2.573,0-4.66,2.087-4.66,4.66c0,2.573,2.087,4.66,4.66,4.66h4.215v4.215c0,2.573,2.087,4.66,4.66,4.66     c2.573,0,4.66-2.087,4.66-4.66v-4.215h4.215c2.573,0,4.66-2.087,4.66-4.66C287.507,112.769,285.42,110.682,282.847,110.682z"
   id="path888" />
		</g>
		<g
   id="g894">
			<path
   fill="#FFDA88"
   d="M101.813,238.1c0,3.905-3.164,7.071-7.069,7.071c-3.905,0-7.072-3.165-7.072-7.071     c0-3.905,3.167-7.071,7.072-7.071C98.65,231.03,101.813,234.195,101.813,238.1z"
   id="path892" />
		</g>
		<g
   id="g898">
			<path
   fill="#FFDA88"
   d="M306.843,137.76c0,3.905-3.161,7.071-7.066,7.071c-3.905,0-7.072-3.165-7.072-7.071     c0-3.905,3.167-7.071,7.072-7.071C303.683,130.69,306.843,133.855,306.843,137.76z"
   id="path896" />
		</g>
		<g
   id="g902">
			<path
   fill="#FF9D8D"
   d="M86.061,167.632c0-5.236,3.455-9.617,8.192-11.121c-1.119-0.357-2.289-0.601-3.529-0.601     c-6.474,0-11.722,5.248-11.722,11.722s5.248,11.722,11.722,11.722c1.239,0,2.409-0.244,3.529-0.601     C89.516,177.249,86.061,172.868,86.061,167.632z"
   id="path900" />
		</g>
		<g
   id="g906">
			<path
   fill="#FF9D8D"
   d="M146.798,217.166c0-5.236,3.455-9.617,8.192-11.121c-1.12-0.357-2.289-0.601-3.529-0.601     c-6.474,0-11.722,5.248-11.722,11.722s5.248,11.722,11.722,11.722c1.239,0,2.409-0.244,3.529-0.601     C150.253,226.783,146.798,222.402,146.798,217.166z"
   id="path904" />
		</g>
		<g
   id="g910">
			<path
   fill="#FF9D8D"
   d="M209.444,137.76c0-5.236,3.455-9.617,8.192-11.121c-1.12-0.357-2.289-0.601-3.529-0.601     c-6.474,0-11.722,5.248-11.722,11.722c0,6.474,5.248,11.722,11.722,11.722c1.239,0,2.409-0.244,3.529-0.601     C212.899,147.377,209.444,142.997,209.444,137.76z"
   id="path908" />
		</g>
		<g
   id="g914">
			<path
   fill="#FF9D8D"
   d="M249.147,205.444c0-5.236,3.455-9.617,8.192-11.121c-1.12-0.357-2.289-0.601-3.529-0.601     c-6.474,0-11.722,5.248-11.722,11.722c0,6.474,5.248,11.722,11.722,11.722c1.239,0,2.409-0.244,3.529-0.601     C252.602,215.061,249.147,210.681,249.147,205.444z"
   id="path912" />
		</g>
		<g
   id="g918">
			<path
   fill="#FF9D8D"
   d="M304.616,276.542c0-5.236,3.453-9.617,8.189-11.121c-1.116-0.357-2.286-0.601-3.527-0.601     c-6.475,0-11.722,5.248-11.722,11.722c0,6.474,5.247,11.722,11.722,11.722c1.241,0,2.411-0.243,3.527-0.601     C308.069,286.159,304.616,281.778,304.616,276.542z"
   id="path916" />
		</g>
		<g
   id="g922">
			<path
   fill="#FFE2A9"
   d="M93.32,238.1c0-2.899,1.75-5.385,4.248-6.475c-0.865-0.38-1.818-0.595-2.824-0.595     c-3.905,0-7.072,3.165-7.072,7.071c0,3.905,3.167,7.071,7.072,7.071c1.006,0,1.959-0.216,2.824-0.595     C95.071,243.486,93.32,241,93.32,238.1z"
   id="path920" />
		</g>
		<g
   id="g926">
			<path
   fill="#FFE2A9"
   d="M298.353,137.76c0-2.899,1.752-5.385,4.248-6.475c-0.863-0.38-1.817-0.595-2.824-0.595     c-3.905,0-7.072,3.165-7.072,7.071c0,3.905,3.167,7.071,7.072,7.071c1.007,0,1.961-0.216,2.824-0.595     C300.105,143.146,298.353,140.66,298.353,137.76z"
   id="path924" />
		</g>
	</g>
	<g
   id="g1002">
		<g
   id="g932">
			<path
   fill="#161616"
   d="M90.722,183.891c-8.966,0-16.259-7.294-16.259-16.259s7.294-16.259,16.259-16.259     c8.966,0,16.259,7.294,16.259,16.259S99.688,183.891,90.722,183.891z M90.722,160.448c-3.962,0-7.184,3.223-7.184,7.184     s3.223,7.184,7.184,7.184c3.961,0,7.184-3.223,7.184-7.184S94.684,160.448,90.722,160.448z"
   id="path930" />
		</g>
		<g
   id="g936">
			<path
   fill="#161616"
   d="M151.46,233.426c-8.966,0-16.259-7.294-16.259-16.259c0-8.966,7.294-16.259,16.259-16.259     c8.966,0,16.259,7.294,16.259,16.259C167.719,226.132,160.426,233.426,151.46,233.426z M151.46,209.982     c-3.961,0-7.184,3.223-7.184,7.184c0,3.961,3.223,7.184,7.184,7.184c3.961,0,7.184-3.223,7.184-7.184     C158.644,213.205,155.421,209.982,151.46,209.982z"
   id="path934" />
		</g>
		<g
   id="g940">
			<path
   fill="#161616"
   d="M214.106,154.02c-8.966,0-16.259-7.294-16.259-16.259c0-8.966,7.294-16.259,16.259-16.259     c8.966,0,16.259,7.294,16.259,16.259C230.365,146.726,223.071,154.02,214.106,154.02z M214.106,130.576     c-3.962,0-7.184,3.223-7.184,7.184c0,3.961,3.223,7.184,7.184,7.184c3.961,0,7.184-3.223,7.184-7.184     C221.29,133.799,218.067,130.576,214.106,130.576z"
   id="path938" />
		</g>
		<g
   id="g944">
			<path
   fill="#161616"
   d="M253.809,221.704c-8.966,0-16.259-7.294-16.259-16.259c0-8.966,7.294-16.259,16.259-16.259     c8.966,0,16.259,7.294,16.259,16.259C270.068,214.41,262.774,221.704,253.809,221.704z M253.809,198.26     c-3.961,0-7.184,3.223-7.184,7.184c0,3.961,3.223,7.184,7.184,7.184c3.962,0,7.184-3.223,7.184-7.184     C260.993,201.483,257.77,198.26,253.809,198.26z"
   id="path942" />
		</g>
		<g
   id="g948">
			<path
   fill="#161616"
   d="M309.278,292.801c-8.966,0-16.259-7.294-16.259-16.259c0-8.966,7.294-16.259,16.259-16.259     c8.966,0,16.259,7.294,16.259,16.259C325.537,285.508,318.243,292.801,309.278,292.801z M309.278,269.358     c-3.962,0-7.184,3.223-7.184,7.184c0,3.961,3.223,7.184,7.184,7.184c3.961,0,7.184-3.223,7.184-7.184     C316.462,272.581,313.239,269.358,309.278,269.358z"
   id="path946" />
		</g>
		<g
   id="g952">
			<path
   fill="#161616"
   d="M145.995,206.855l-44.073-35.944c-0.894,3.053-2.976,5.567-5.735,7.032l44.075,35.945     C141.154,210.834,143.236,208.322,145.995,206.855z"
   id="path950" />
		</g>
		<g
   id="g956">
			<path
   fill="#161616"
   d="M243.642,211.175c-0.962-1.7-1.555-3.638-1.555-5.731c0-1.149,0.217-2.236,0.525-3.285l-80.985,9.276     c0.962,1.701,1.555,3.638,1.555,5.731c0,1.149-0.217,2.236-0.524,3.285L243.642,211.175z"
   id="path954" />
		</g>
		<g
   id="g960">
			<path
   fill="#161616"
   d="M306.238,265.269L264,211.13c-1.523,2.722-4.074,4.757-7.152,5.588l42.238,54.139     C300.609,268.135,303.16,266.098,306.238,265.269z"
   id="path958" />
		</g>
		<g
   id="g964">
			<path
   fill="#161616"
   d="M204.707,144.704c-1.442-1.947-2.324-4.334-2.324-6.944c0-0.643,0.09-1.261,0.189-1.877l-102.452,24.804     c1.441,1.948,2.323,4.335,2.323,6.945c0,0.643-0.09,1.261-0.189,1.876L204.707,144.704z"
   id="path962" />
		</g>
		<g
   id="g968">
			<path
   fill="#161616"
   d="M223.466,144.75c-1.846,2.468-4.629,4.158-7.834,4.579l28.817,49.127     c1.846-2.468,4.629-4.158,7.834-4.579L223.466,144.75z"
   id="path966" />
		</g>
		<g
   id="g972">
			<path
   fill="#161616"
   d="M265.724,273.696h-4.216v-4.216c0-2.573-2.087-4.66-4.66-4.66c-2.573,0-4.66,2.087-4.66,4.66v4.216     h-4.216c-2.573,0-4.66,2.087-4.66,4.66c0,2.573,2.087,4.66,4.66,4.66h4.216v4.215c0,2.573,2.087,4.66,4.66,4.66     c2.573,0,4.66-2.087,4.66-4.66v-4.215h4.216c2.573,0,4.66-2.087,4.66-4.66C270.384,275.783,268.297,273.696,265.724,273.696z"
   id="path970" />
		</g>
		<g
   id="g976">
			<path
   fill="#161616"
   d="M233.458,297.139h-4.216v-4.216c0-2.573-2.087-4.66-4.66-4.66c-2.573,0-4.66,2.087-4.66,4.66v4.216     h-4.216c-2.573,0-4.66,2.087-4.66,4.66c0,2.573,2.087,4.66,4.66,4.66h4.216v4.215c0,2.573,2.087,4.66,4.66,4.66     c2.573,0,4.66-2.087,4.66-4.66v-4.215h4.216c2.573,0,4.66-2.087,4.66-4.66C238.118,299.226,236.031,297.139,233.458,297.139z"
   id="path974" />
		</g>
		<g
   id="g980">
			<path
   fill="#161616"
   d="M220.029,278.775c-6.402,0-11.61-5.208-11.61-11.608c0-6.4,5.208-11.608,11.61-11.608     c6.4,0,11.607,5.208,11.607,11.608C231.635,273.567,226.429,278.775,220.029,278.775z M220.029,264.634     c-1.397,0-2.535,1.136-2.535,2.533s1.137,2.533,2.535,2.533c1.396,0,2.532-1.136,2.532-2.533S221.424,264.634,220.029,264.634z"
   id="path978" />
		</g>
		<g
   id="g984">
			<path
   fill="#161616"
   d="M125.767,261.062h-4.216v-4.215c0-2.573-2.087-4.66-4.66-4.66c-2.573,0-4.66,2.087-4.66,4.66v4.215     h-4.216c-2.573,0-4.66,2.087-4.66,4.66c0,2.573,2.087,4.66,4.66,4.66h4.216v4.215c0,2.573,2.087,4.66,4.66,4.66     c2.573,0,4.66-2.087,4.66-4.66v-4.215h4.216c2.573,0,4.66-2.087,4.66-4.66C130.427,263.15,128.34,261.062,125.767,261.062z"
   id="path982" />
		</g>
		<g
   id="g988">
			<path
   fill="#161616"
   d="M315.113,93.54h-4.215v-4.215c0-2.573-2.087-4.66-4.66-4.66c-2.573,0-4.66,2.087-4.66,4.66v4.215h-4.215     c-2.573,0-4.66,2.087-4.66,4.66c0,2.573,2.087,4.66,4.66,4.66h4.215v4.215c0,2.573,2.087,4.66,4.66,4.66     c2.573,0,4.66-2.087,4.66-4.66v-4.215h4.215c2.573,0,4.66-2.087,4.66-4.66C319.774,95.628,317.686,93.54,315.113,93.54z"
   id="path986" />
		</g>
		<g
   id="g992">
			<path
   fill="#161616"
   d="M282.846,110.682h-4.215v-4.215c0-2.573-2.087-4.66-4.66-4.66c-2.573,0-4.66,2.087-4.66,4.66v4.215     h-4.215c-2.573,0-4.66,2.087-4.66,4.66c0,2.573,2.087,4.66,4.66,4.66h4.215v4.215c0,2.573,2.087,4.66,4.66,4.66     c2.573,0,4.66-2.087,4.66-4.66v-4.215h4.215c2.573,0,4.66-2.087,4.66-4.66C287.506,112.769,285.419,110.682,282.846,110.682z"
   id="path990" />
		</g>
		<g
   id="g996">
			<path
   fill="#161616"
   d="M94.743,249.709c-6.402,0-11.61-5.208-11.61-11.608c0-6.4,5.208-11.608,11.61-11.608     c6.4,0,11.607,5.208,11.607,11.608C106.349,244.5,101.143,249.709,94.743,249.709z M94.743,235.567     c-1.397,0-2.535,1.136-2.535,2.533c0,1.397,1.137,2.533,2.535,2.533c1.396,0,2.532-1.136,2.532-2.533     C97.275,236.703,96.139,235.567,94.743,235.567z"
   id="path994" />
		</g>
		<g
   id="g1000">
			<path
   fill="#161616"
   d="M299.774,149.368c-6.401,0-11.61-5.208-11.61-11.608c0-6.4,5.208-11.608,11.61-11.608     c6.4,0,11.607,5.208,11.607,11.608C311.381,144.16,306.174,149.368,299.774,149.368z M299.774,135.227     c-1.397,0-2.535,1.136-2.535,2.533c0,1.397,1.137,2.533,2.535,2.533c1.396,0,2.532-1.136,2.532-2.533     C302.306,136.363,301.17,135.227,299.774,135.227z"
   id="path998" />
		</g>
	</g>
</g>
</svg>
