<?xml version="1.0" encoding="UTF-8" standalone="no"?>
<svg
   enable-background="new 0 0 511.998 511.998"
   viewBox="0 0 511.998 511.998"
   version="1.1"
   id="svg910"
   sodipodi:docname="planet-1.svg"
   inkscape:version="1.1.2 (b8e25be8, 2022-02-05)"
   xmlns:inkscape="http://www.inkscape.org/namespaces/inkscape"
   xmlns:sodipodi="http://sodipodi.sourceforge.net/DTD/sodipodi-0.dtd"
   xmlns="http://www.w3.org/2000/svg"
   xmlns:svg="http://www.w3.org/2000/svg">
  <defs
     id="defs914" />
  <sodipodi:namedview
     id="namedview912"
     pagecolor="#ffffff"
     bordercolor="#666666"
     borderopacity="1.0"
     inkscape:pageshadow="2"
     inkscape:pageopacity="0.0"
     inkscape:pagecheckerboard="0"
     showgrid="false"
     inkscape:zoom="1.2207079"
     inkscape:cx="255.999"
     inkscape:cy="255.999"
     inkscape:window-width="1312"
     inkscape:window-height="847"
     inkscape:window-x="0"
     inkscape:window-y="25"
     inkscape:window-maximized="0"
     inkscape:current-layer="svg910" />
  <circle
     cx="255.762"
     cy="265.85"
     fill="#ffdc6e"
     r="59.913"
     id="circle824" />
  <path
     d="m279.302 308.647c-29.543 0-53.493-23.95-53.493-53.493 0-22.04 13.333-40.96 32.369-49.153-.801-.032-1.604-.061-2.413-.061-33.089 0-59.913 26.824-59.913 59.913s26.824 59.913 59.913 59.913c18.871 0 35.695-8.733 46.677-22.37-7.002 3.365-14.85 5.251-23.14 5.251z"
     fill="#ffc85f"
     id="path826" />
  <circle
     cx="110.26"
     cy="77.553"
     fill="#ffaf73"
     r="25.677"
     id="circle828" />
  <circle
     cx="367.029"
     cy="368.558"
     fill="#d2b98c"
     r="25.677"
     id="circle830" />
  <path
     d="m187.829 265.852c0 37.46 30.476 67.937 67.937 67.937s67.937-30.476 67.937-67.937-30.476-67.937-67.937-67.937-67.937 30.476-67.937 67.937zm119.825 0c0 28.612-23.277 51.889-51.889 51.889s-51.889-23.277-51.889-51.889 23.277-51.889 51.889-51.889 51.889 23.277 51.889 51.889z"
     id="path832" />
  <path
     d="m492.521 302.566c-3.465-2.761-8.514-2.189-11.275 1.277-3.127 3.925-6.778 7.823-10.851 11.581-3.257 3.005-3.461 8.082-.456 11.338 1.582 1.715 3.737 2.583 5.899 2.583 1.945 0 3.896-.704 5.439-2.127 4.673-4.313 8.886-8.813 12.522-13.378 2.761-3.465 2.188-8.513-1.278-11.274z"
     id="path834" />
  <path
     d="m15.985 272.261c-.556-4.397-4.578-7.503-8.967-6.954-4.397.556-7.51 4.57-6.954 8.967.787 6.23 2.471 12.46 5.003 18.514 1.287 3.077 4.268 4.93 7.406 4.93 1.031 0 2.081-.201 3.093-.624 4.088-1.71 6.017-6.411 4.307-10.499-1.975-4.717-3.282-9.541-3.888-14.334z"
     id="path836" />
  <path
     d="m114.507 167.206c-1.51-4.167-6.109-6.32-10.277-4.812-5.605 2.031-11.107 4.2-16.355 6.449-4.073 1.746-5.96 6.463-4.214 10.536 1.304 3.043 4.266 4.865 7.379 4.865 1.055 0 2.127-.209 3.157-.65 4.966-2.129 10.181-4.184 15.498-6.11 4.167-1.51 6.322-6.112 4.812-10.278z"
     id="path838" />
  <path
     d="m49.601 322.583c-4.412-3.434-8.472-7.011-12.067-10.63-3.124-3.144-8.204-3.159-11.347-.036s-3.16 8.204-.036 11.347c4.073 4.1 8.647 8.131 13.593 11.981 1.466 1.14 3.201 1.694 4.924 1.694 2.39 0 4.756-1.063 6.337-3.095 2.721-3.497 2.093-8.539-1.404-11.261z"
     id="path840" />
  <path
     d="m92.213 347.251c-5.182-2.27-10.212-4.675-14.952-7.149-3.929-2.051-8.776-.527-10.826 3.402s-.526 8.776 3.402 10.826c5.059 2.64 10.422 5.204 15.935 7.62 1.048.459 2.141.676 3.216.676 3.09 0 6.034-1.795 7.354-4.806 1.778-4.058-.07-8.791-4.129-10.569z"
     id="path842" />
  <path
     d="m69.881 196.561c4.542-1.377 6.729-5.659 5.512-9.919-1.55-5.427-2.844-10.797-3.845-15.961-.843-4.35-5.057-7.199-9.405-6.35-4.35.844-7.194 5.054-6.35 9.405.662 3.416 1.454 6.916 2.34 10.449-.597.193-1.182.449-1.741.792-5.243 3.217-10.22 6.6-14.793 10.056-3.535 2.673-4.235 7.704-1.563 11.24 1.578 2.087 3.978 3.186 6.407 3.186 1.685 0 3.384-.529 4.833-1.623 4.161-3.144 8.706-6.233 13.508-9.179.823-.505 2.983-1.455 5.097-2.096z"
     id="path844" />
  <path
     d="m511.816 260.89c-.328-4.42-4.186-7.743-8.596-7.408-4.419.328-7.735 4.177-7.408 8.596.093 1.252.14 2.52.139 3.773 0 3.642-.397 7.318-1.179 10.924-.939 4.331 1.81 8.604 6.141 9.542.573.124 1.145.184 1.709.184 3.694 0 7.019-2.568 7.834-6.325 1.024-4.722 1.543-9.542 1.543-14.322.001-1.646-.061-3.316-.183-4.964z"
     id="path846" />
  <path
     d="m390.923 173.753c5.379 1.733 10.679 3.594 15.755 5.53.941.358 1.909.53 2.859.53 3.232 0 6.278-1.966 7.499-5.166 1.58-4.14-.496-8.777-4.636-10.357-5.338-2.036-10.907-3.992-16.554-5.812-4.219-1.359-8.74.959-10.099 5.176-1.36 4.218.959 8.74 5.176 10.099z"
     id="path848" />
  <path
     d="m342.126 161.632c5.547 1.013 11.085 2.139 16.461 3.347.593.133 1.183.197 1.765.197 3.671 0 6.983-2.536 7.822-6.267.971-4.324-1.747-8.617-6.07-9.587-5.586-1.254-11.337-2.423-17.095-3.475-4.36-.8-8.539 2.093-9.335 6.452-.796 4.358 2.093 8.537 6.452 9.333z"
     id="path850" />
  <path
     d="m485.748 234.067c1.54 2.351 4.104 3.627 6.719 3.627 1.509 0 3.034-.425 4.391-1.314 3.706-2.429 4.743-7.402 2.313-11.11-3.229-4.927-7.099-9.796-11.503-14.471-3.038-3.226-8.117-3.378-11.343-.338-3.226 3.038-3.378 8.116-.339 11.343 3.762 3.994 7.046 8.12 9.762 12.263z"
     id="path852" />
  <path
     d="m139.57 363.475c-5.456-1.429-10.873-2.983-16.1-4.614-4.225-1.321-8.73 1.036-10.051 5.267-1.321 4.23 1.037 8.73 5.267 10.051 5.463 1.706 11.121 3.328 16.817 4.82.682.179 1.365.264 2.039.264 3.561 0 6.812-2.387 7.757-5.992 1.121-4.288-1.443-8.674-5.729-9.796z"
     id="path854" />
  <path
     d="m233.277 146.449c.121 4.354 3.688 7.801 8.017 7.801.075 0 .151-.001.227-.003 5.583-.155 11.261-.221 16.852-.19h.044c4.411 0 7.999-3.565 8.023-7.981.024-4.431-3.55-8.043-7.981-8.067-5.767-.032-11.624.036-17.382.197-4.431.122-7.922 3.813-7.8 8.243z"
     id="path856" />
  <path
     d="m206.36 140.338c-5.788.555-11.607 1.218-17.297 1.969-4.393.58-7.485 4.612-6.905 9.005.534 4.037 3.981 6.974 7.945 6.974.35 0 .704-.022 1.06-.07 5.501-.726 11.129-1.367 16.727-1.904 4.411-.424 7.644-4.343 7.222-8.754-.422-4.409-4.342-7.643-8.752-7.22z"
     id="path858" />
  <path
     d="m26.897 218.894c-3.554-2.645-8.582-1.906-11.227 1.648-3.887 5.224-7.121 10.644-9.613 16.109-1.838 4.032-.06 8.791 3.972 10.63 1.079.492 2.21.725 3.324.725 3.047 0 5.959-1.744 7.306-4.698 2.022-4.435 4.675-8.871 7.886-13.186 2.644-3.556 1.907-8.584-1.648-11.228z"
     id="path860" />
  <path
     d="m433.211 357.666c1.192 0 2.404-.267 3.544-.83 3.505-1.73 6.932-3.523 10.242-5.36 3.554-1.972 5.404-6.02 4.53-9.989-.448-2.038-1.117-4.634-2.108-7.919-1.252-4.151-2.782-8.327-4.371-12.528-1.557-4.113-6.084-6.501-10.241-5.065-4.296 1.484-6.488 6.211-4.888 10.431 1.725 4.549 3.284 9.082 4.672 13.519-1.534.805-3.083 1.602-4.657 2.382-3.807 1.887-5.768 6.369-4.182 10.311 1.281 3.184 4.306 5.048 7.459 5.048z"
     id="path862" />
  <path
     d="m298.405 383.981c-.297-4.422-4.121-7.765-8.545-7.467-5.542.373-11.203.659-16.825.849-4.429.15-7.899 3.861-7.749 8.29.147 4.337 3.708 7.753 8.014 7.753.091 0 .183-.001.275-.004 5.801-.196 11.642-.49 17.363-.876 4.423-.299 7.765-4.124 7.467-8.545z"
     id="path864" />
  <path
     d="m459.806 187.929c-4.788-3.124-9.937-6.174-15.303-9.066-3.902-2.101-8.768-.643-10.87 3.258s-.644 8.768 3.258 10.87c4.973 2.679 9.733 5.498 14.146 8.378 1.353.883 2.874 1.305 4.378 1.305 2.62 0 5.189-1.282 6.727-3.64 2.42-3.712 1.375-8.684-2.336-11.105z"
     id="path866" />
  <path
     d="m164.218 154.364c-.916-4.336-5.175-7.105-9.509-6.193-5.731 1.21-11.454 2.544-17.006 3.965-4.293 1.099-6.884 5.469-5.785 9.763.928 3.627 4.19 6.037 7.768 6.037.658 0 1.328-.082 1.994-.252 5.333-1.365 10.832-2.647 16.343-3.81 4.336-.916 7.109-5.173 6.195-9.51z"
     id="path868" />
  <path
     d="m400.585 371.656c1.241-.419 2.48-.841 3.7-1.27 4.181-1.469 6.38-6.048 4.912-10.23-1.468-4.181-6.047-6.381-10.23-4.912-.281.098-.57.195-.853.292-5.103-12.135-17.113-20.68-31.082-20.68-18.583 0-33.701 15.118-33.701 33.701 0 1.008.052 2.003.14 2.988-3.362.545-6.741 1.066-10.127 1.536-4.39.609-7.454 4.66-6.845 9.05.557 4.015 3.995 6.922 7.937 6.922.367 0 .738-.025 1.113-.077 4.437-.616 8.865-1.315 13.249-2.053 6.02 9.222 16.424 15.333 28.234 15.333 17.538.005 31.984-13.464 33.553-30.6zm-33.553 14.557c-9.734 0-17.653-7.919-17.653-17.653s7.919-17.653 17.653-17.653 17.653 7.919 17.653 17.653c0 9.733-7.919 17.653-17.653 17.653z"
     id="path870" />
  <path
     d="m229.635 107.408c4.836 2.567 9.749 5.325 14.605 8.196 1.282.759 2.689 1.119 4.077 1.119 2.743 0 5.417-1.408 6.914-3.94 2.256-3.814.993-8.735-2.821-10.991-5.068-2.998-10.199-5.878-15.252-8.559-3.914-2.077-8.772-.588-10.85 3.325-2.078 3.914-.588 8.772 3.327 10.85z"
     id="path872" />
  <path
     d="m403.656 448.888c-4.652 1.531-9.738 2.622-15.117 3.245-4.403.509-7.559 4.49-7.049 8.893.473 4.089 3.941 7.103 7.961 7.103.307 0 .618-.017.932-.053 6.456-.746 12.609-2.072 18.292-3.942 4.21-1.385 6.498-5.921 5.113-10.131-1.387-4.211-5.925-6.501-10.132-5.115z"
     id="path874" />
  <path
     d="m430.577 288.659c-2.614-5.087-5.43-10.257-8.37-15.367-2.209-3.842-7.116-5.163-10.957-2.954s-5.164 7.115-2.954 10.957c2.814 4.891 5.507 9.836 8.007 14.7 1.423 2.768 4.231 4.358 7.143 4.358 1.235 0 2.487-.286 3.661-.889 3.943-2.026 5.496-6.864 3.47-10.805z"
     id="path876" />
  <path
     d="m446.906 416.271c-4.026-1.847-8.79-.079-10.639 3.949-2.12 4.624-4.795 8.841-7.95 12.535-2.878 3.369-2.48 8.435.89 11.313 1.512 1.291 3.365 1.923 5.208 1.923 2.266 0 4.518-.954 6.105-2.813 4.119-4.822 7.596-10.295 10.336-16.268 1.847-4.029.078-8.792-3.95-10.639z"
     id="path878" />
  <path
     d="m390.333 252.946c1.559 2.251 4.06 3.457 6.604 3.457 1.575 0 3.167-.463 4.56-1.427 3.644-2.523 4.552-7.521 2.03-11.165-3.265-4.715-6.693-9.47-10.189-14.133-2.659-3.544-7.689-4.263-11.234-1.605s-4.263 7.688-1.605 11.234c3.377 4.502 6.685 9.09 9.834 13.639z"
     id="path880" />
  <path
     d="m348.521 189.236c-3.248 3.014-3.438 8.091-.424 11.34 3.818 4.116 7.605 8.334 11.252 12.541 1.587 1.829 3.819 2.768 6.066 2.768 1.863 0 3.735-.645 5.253-1.961 3.349-2.903 3.709-7.971.806-11.319-3.765-4.343-7.672-8.697-11.612-12.944-3.016-3.25-8.093-3.44-11.341-.425z"
     id="path882" />
  <path
     d="m356.599 451.065c-5.166-.814-10.556-1.933-16.022-3.326-4.293-1.096-8.662 1.499-9.757 5.794-1.094 4.294 1.499 8.663 5.794 9.757 5.947 1.516 11.831 2.737 17.487 3.628.424.066.844.098 1.259.098 3.88 0 7.293-2.821 7.916-6.775.69-4.378-2.3-8.486-6.677-9.176z"
     id="path884" />
  <path
     d="m264.576 414.477c-4.707-2.836-9.481-5.853-14.19-8.964-3.697-2.441-8.674-1.427-11.119 2.269-2.444 3.697-1.427 8.674 2.269 11.119 4.894 3.234 9.858 6.371 14.756 9.322 1.296.781 2.724 1.152 4.134 1.152 2.721 0 5.374-1.383 6.88-3.884 2.288-3.794 1.066-8.726-2.73-11.014z"
     id="path886" />
  <path
     d="m183.808 87.689c5.092 1.647 10.338 3.543 15.594 5.638.975.388 1.979.572 2.968.572 3.188 0 6.204-1.914 7.456-5.055 1.641-4.117-.366-8.784-4.483-10.425-5.586-2.226-11.169-4.244-16.599-6-4.215-1.365-8.74.95-10.103 5.166-1.362 4.216.951 8.74 5.167 10.104z"
     id="path888" />
  <path
     d="m173.765 364.473c1.555 1.487 3.551 2.226 5.546 2.226 2.113 0 4.223-.829 5.799-2.477 3.063-3.202 2.951-8.282-.251-11.345-2.717-2.6-5.46-5.281-8.148-7.969-1.29-1.29-2.57-2.584-3.839-3.88-3.1-3.167-8.18-3.22-11.347-.121-3.167 3.1-3.22 8.18-.121 11.347 1.31 1.337 2.629 2.671 3.961 4.002 2.772 2.772 5.598 5.537 8.4 8.217z"
     id="path890" />
  <path
     d="m449.088 365.245c-4.407.469-7.599 4.421-7.131 8.828.479 4.509.722 8.93.722 13.138 0 .969-.013 1.931-.039 2.885-.12 4.43 3.374 8.118 7.805 8.237.074.002.147.003.22.003 4.331 0 7.899-3.451 8.017-7.808.03-1.098.045-2.204.045-3.319 0-4.772-.273-9.763-.812-14.835-.469-4.405-4.424-7.595-8.827-7.129z"
     id="path892" />
  <path
     d="m119.404 276.145c-3.173-4.657-6.261-9.389-9.174-14.065-2.344-3.761-7.292-4.91-11.054-2.564-3.761 2.344-4.909 7.293-2.564 11.054 3.029 4.859 6.235 9.775 9.531 14.612 1.553 2.279 4.073 3.506 6.639 3.506 1.556 0 3.128-.452 4.512-1.394 3.66-2.494 4.605-7.486 2.11-11.149z"
     id="path894" />
  <path
     d="m139.385 303.198c-2.762-3.465-7.811-4.036-11.276-1.274s-4.036 7.81-1.274 11.276c3.574 4.485 7.303 8.999 11.082 13.415 1.587 1.854 3.837 2.807 6.1 2.807 1.846 0 3.701-.633 5.213-1.928 3.367-2.881 3.761-7.946.879-11.314-3.657-4.274-7.265-8.641-10.724-12.982z"
     id="path896" />
  <path
     d="m86.71 217.796c-1.772-4.062-6.502-5.921-10.563-4.146-4.062 1.772-5.919 6.502-4.146 10.563 2.283 5.235 4.792 10.58 7.457 15.886 1.408 2.806 4.238 4.426 7.177 4.426 1.21 0 2.438-.275 3.594-.855 3.961-1.988 5.559-6.811 3.571-10.77-2.536-5.051-4.92-10.132-7.09-15.104z"
     id="path898" />
  <path
     d="m79.274 99.369c1.498 0 2.99-.426 4.297-1.255.875 1.135 1.823 2.232 2.863 3.272 6.57 6.57 15.201 9.855 23.83 9.855s17.26-3.285 23.83-9.855c6.12-6.12 9.386-14.028 9.805-22.057 2.622.206 5.294.493 8 .864.37.05.737.075 1.1.075 3.948 0 7.389-2.914 7.94-6.935.602-4.391-2.469-8.438-6.86-9.04-4.561-.625-9.049-1.04-13.403-1.246-1.605-3.372-3.795-6.533-6.582-9.321-13.14-13.14-34.52-13.14-47.661 0-7.813 7.813-10.979 18.54-9.502 28.714-.802.728-1.592 1.468-2.352 2.229-.377.377-.747.756-1.114 1.139-3.058 3.207-2.938 8.286.27 11.345 1.556 1.481 3.548 2.216 5.539 2.216zm18.507-34.296c3.442-3.442 7.962-5.162 12.482-5.162s9.041 1.72 12.482 5.162c6.882 6.884 6.882 18.082 0 24.964-6.884 6.884-18.082 6.884-24.965 0-6.882-6.883-6.882-18.082.001-24.964z"
     id="path900" />
  <path
     d="m309.222 437.199c-5-2.059-10.121-4.344-15.222-6.788-3.996-1.916-8.789-.229-10.704 3.767-1.916 3.996-.229 8.788 3.767 10.704 5.37 2.574 10.768 4.981 16.045 7.155 1 .412 2.035.607 3.053.607 3.154 0 6.146-1.872 7.423-4.97 1.69-4.097-.264-8.787-4.362-10.475z"
     id="path902" />
  <path
     d="m60.554 146.178c.153.009.305.013.457.013 4.225 0 7.764-3.304 8.004-7.575.306-5.461 1.057-10.661 2.231-15.456 1.054-4.304-1.581-8.648-5.885-9.702-4.306-1.058-8.648 1.581-9.702 5.885-1.408 5.751-2.306 11.933-2.666 18.375-.25 4.423 3.136 8.211 7.561 8.46z"
     id="path904" />
  <path
     d="m239.906 393.46c4.318 0 7.884-3.433 8.015-7.78.135-4.429-3.347-8.13-7.777-8.265-23.473-.715-46.502-3.047-68.446-6.933-4.363-.773-8.527 2.139-9.3 6.503-.772 4.364 2.139 8.528 6.503 9.3 22.705 4.021 46.51 6.433 70.756 7.171.083.004.166.004.249.004z"
     id="path906" />
  <path
     d="m273.295 134.53c17.504 12.458 34.692 26.628 51.085 42.118 1.551 1.466 3.532 2.191 5.509 2.191 2.13 0 4.256-.843 5.834-2.513 3.044-3.221 2.899-8.3-.322-11.344-16.931-15.997-34.696-30.641-52.802-43.527-3.611-2.571-8.621-1.726-11.19 1.885-2.568 3.61-1.725 8.621 1.886 11.19z"
     id="path908" />
</svg>
